<svg xmlns="http://www.w3.org/2000/svg" xmlns:xlink="http://www.w3.org/1999/xlink" width="500" zoomAndPan="magnify" viewBox="0 0 375 374.999991" height="500" preserveAspectRatio="xMidYMid meet" version="1.0"><defs><g/></defs><path fill="rgb(58.428955%, 0%, 70.588684%)" d="M 187.5 0 C 83.945312 0 0 83.945312 0 187.5 C 0 291.054688 83.945312 375 187.5 375 C 291.054688 375 375 291.054688 375 187.5 C 375 83.945312 291.054688 0 187.5 0 " fill-opacity="1" fill-rule="nonzero"/><g fill="rgb(100%, 100%, 100%)" fill-opacity="1"><g transform="translate(96.004686, 292.499981)"><g><path d="M 166.5 -12 C 166.5 -8.601562 165.347656 -5.753906 163.046875 -3.453125 C 160.742188 -1.148438 157.894531 0 154.5 0 C 151.101562 0 148.253906 -1.148438 145.953125 -3.453125 C 143.648438 -5.753906 142.5 -8.601562 142.5 -12 L 142.5 -20.09375 C 135.695312 -13.695312 127.992188 -8.75 119.390625 -5.25 C 110.796875 -1.75 101.5 0 91.5 0 C 81.101562 0 71.351562 -1.945312 62.25 -5.84375 C 53.144531 -9.75 45.191406 -15.097656 38.390625 -21.890625 C 31.597656 -28.691406 26.25 -36.644531 22.34375 -45.75 C 18.445312 -54.851562 16.5 -64.601562 16.5 -75 C 16.5 -85.394531 18.445312 -95.144531 22.34375 -104.25 C 26.25 -113.351562 31.597656 -121.300781 38.390625 -128.09375 C 45.191406 -134.894531 53.144531 -140.242188 62.25 -144.140625 C 71.351562 -148.046875 81.101562 -150 91.5 -150 C 101.5 -150 110.796875 -148.25 119.390625 -144.75 C 127.992188 -141.25 135.695312 -136.300781 142.5 -129.90625 L 142.5 -213 C 142.5 -216.394531 143.648438 -219.242188 145.953125 -221.546875 C 148.253906 -223.847656 151.101562 -225 154.5 -225 C 157.894531 -225 160.742188 -223.847656 163.046875 -221.546875 C 165.347656 -219.242188 166.5 -216.394531 166.5 -213 Z M 91.5 -24 C 98.5 -24 105.097656 -25.347656 111.296875 -28.046875 C 117.492188 -30.742188 122.894531 -34.394531 127.5 -39 C 132.101562 -43.601562 135.753906 -49.003906 138.453125 -55.203125 C 141.148438 -61.398438 142.5 -68 142.5 -75 C 142.5 -82 141.148438 -88.597656 138.453125 -94.796875 C 135.753906 -100.992188 132.101562 -106.394531 127.5 -111 C 122.894531 -115.601562 117.492188 -119.253906 111.296875 -121.953125 C 105.097656 -124.648438 98.5 -126 91.5 -126 C 84.5 -126 77.898438 -124.648438 71.703125 -121.953125 C 65.503906 -119.253906 60.101562 -115.601562 55.5 -111 C 50.894531 -106.394531 47.242188 -100.992188 44.546875 -94.796875 C 41.847656 -88.597656 40.5 -82 40.5 -75 C 40.5 -68 41.847656 -61.398438 44.546875 -55.203125 C 47.242188 -49.003906 50.894531 -43.601562 55.5 -39 C 60.101562 -34.394531 65.503906 -30.742188 71.703125 -28.046875 C 77.898438 -25.347656 84.5 -24 91.5 -24 Z M 91.5 -24 "/></g></g></g></svg>